#!OML:ASF F:\VICON\USERDATA\Patient Classification 1\PLAYGROUND\JustinFriday\JustinFriday.ASF
:FULLY-SPECIFIED
:DEGREES
1642
root 40.9631 19.031 -8.6521 168.598 -80.0149 -161.533
lowerback 31.073 1.73026 -1.84315
upperback 8.73506 0.976371 3.74544
thorax -7.23668 0.0224694 4.99935
lowerneck -4.1692 -0.589141 -4.63402
upperneck 23.5056 -0.99864 -0.22665
head 7.95549 -1.14838 0.596718
rclavicle 4.77083e-015 3.69739e-014
rhumerus 70.3686 18.5648 -69.7827
rradius 29.3038
rwrist 18.5878
rhand -32.2474 -15.7447
rfingers 7.12502
rthumb -5.48758 -45.6537
lclavicle 4.77083e-015 3.69739e-014
lhumerus 39.9373 -14.1411 67.758
lradius 34.3553
lwrist -20.6711
lhand -27.136 -30.2698
lfingers 7.12502
lthumb -0.551435 -0.290725
rfemur -64.5755 -0.993004 23.3002
rtibia 86.6411
rfoot -34.7849 -0.498404
rtoes 2.61858
lfemur -7.08461 5.86697 -18.7044
ltibia 19.8478
lfoot -8.74759 4.06622
ltoes 9.68424
1643
root 41.0523 18.9329 -8.62252 168.267 -80.1093 -161.815
lowerback 31.0695 1.66651 -2.06265
upperback 8.76239 0.82558 3.74072
thorax -7.19121 -0.0513411 5.1773
lowerneck -4.35531 -0.475444 -4.7296
upperneck 23.0521 -0.800145 -0.149398
head 7.83322 -1.03829 0.65545
rclavicle -1.51076e-014 -4.57205e-015
rhumerus 70.3023 18.8798 -68.0199
rradius 29.9362
rwrist 17.1038
rhand -31.7802 -17.5939
rfingers 7.12502
rthumb -5.03655 -47.514
lclavicle -1.51076e-014 -4.57205e-015
lhumerus 40.6154 -12.6815 69.7204
lradius 32.5872
lwrist -22.9714
lhand -27.1735 -30.6711
lfingers 7.12502
lthumb -0.58764 -0.692148
rfemur -65.0649 -1.32204 23.2219
rtibia 87.6344
rfoot -34.2747 -0.0710834
rtoes 2.9916
lfemur -7.32547 6.10195 -18.853
ltibia 21.2304
lfoot -10.3695 3.67901
ltoes 11.3313
1644
root 41.1404 18.8387 -8.59572 168.716 -80.4158 -162.746
lowerback 30.9164 1.55936 -2.34652
upperback 8.78951 0.600073 3.61293
thorax -7.06663 -0.157416 5.2754
lowerneck -4.4764 -0.364427 -4.58773
upperneck 22.4394 -0.622548 -0.109167
head 7.64529 -0.915451 0.66065
rclavicle -3.24019e-014 -2.78299e-014
rhumerus 69.9429 19.0238 -67.0957
rradius 30.6862
rwrist 15.9553
rhand -31.8716 -19.3167
rfingers 7.12502
rthumb -5.12479 -49.2348
lclavicle -3.24019e-014 -2.78299e-014
lhumerus 40.7757 -11.7654 70.9002
lradius 32.4512
lwrist -24.092
lhand -26.4941 -30.2451
lfingers 7.12502
lthumb 0.0685377 -0.265389
rfemur -65.6976 -1.81445 22.9478
rtibia 88.5808
rfoot -33.6359 -0.363251
rtoes 1.34988
lfemur -7.81994 6.5297 -19.1924
ltibia 22.6916
lfoot -11.6083 3.13951
ltoes 11.8165
1645
root 41.2273 18.7554 -8.57757 168.533 -80.6246 -163.056
lowerback 30.9228 1.47877 -2.79501
upperback 8.75343 0.367367 3.56171
thorax -7.08655 -0.262564 5.56521
lowerneck -4.51794 -0.126835 -4.48326
upperneck 21.8897 -0.284673 -0.0551338
head 7.46179 -0.723353 0.688165
rclavicle 6.55989e-015 3.16068e-014
rhumerus 69.439 19.6034 -66.1591
rradius 31.751
rwrist 13.6242
rhand -32.4419 -20.7079
rfingers 7.12502
rthumb -5.67535 -50.6119
lclavicle 6.55989e-015 3.16068e-014
lhumerus 41.4935 -13.1467 68.3084
lradius 32.2497
lwrist -20.7183
lhand -26.5468 -28.6007
lfingers 7.12502
lthumb 0.0176757 1.37904
rfemur -66.1589 -2.07966 22.8629
rtibia 89.4341
rfoot -33.1212 -1.19394
rtoes -1.41623
lfemur -8.26776 6.78611 -19.3064
ltibia 24.0272
lfoot -12.8199 2.48576
ltoes 13.7564
1646
root 41.3052 18.6789 -8.56074 168.401 -80.754 -163.517
lowerback 30.9097 0.874298 -2.13199
upperback 8.83622 -0.296034 2.53993
thorax -6.92552 -0.576794 4.24791
lowerneck -4.76249 0.228351 -3.61113
upperneck 21.4996 0.0465523 0.432113
head 7.36351 -0.439702 0.726342
rclavicle 1.34304e-014 1.45361e-015
rhumerus 68.6714 20.1025 -66.9446
rradius 32.9877
rwrist 10.783
rhand -33.6423 -21.9884
rfingers 7.12502
rthumb -6.83423 -51.8581
lclavicle 1.34304e-014 1.45361e-015
lhumerus 42.5896 -10.579 70.7737
lradius 29.488
lwrist -25.0032
lhand -26.5914 -29.3279
lfingers 7.12502
lthumb -0.0254082 0.651858
rfemur -66.4731 -2.19093 22.7367
rtibia 90.229
rfoot -32.7446 -1.16453
rtoes -1.73014
lfemur -8.4434 7.35595 -19.4555
ltibia 25.2726
lfoot -14.0967 1.93386
ltoes 14.1344
1647
root 41.3758 18.589 -8.54729 170.131 -80.9487 -165.849
lowerback 30.803 0.730861 -2.1947
upperback 8.97321 -0.555255 1.97325
thorax -6.70594 -0.704799 3.72961
lowerneck -5.11625 0.318703 -3.30269
upperneck 21.1 0.0969326 0.888499
head 7.29197 -0.335143 0.827658
rclavicle 8.34896e-015 -2.39536e-014
rhumerus 67.4194 19.6914 -68.3772
rradius 33.9694
rwrist 11.1853
rhand -32.6268 -21.5185
rfingers 7.12502
rthumb -5.85396 -51.4176
lclavicle 8.34896e-015 -2.39536e-014
lhumerus 43.0118 -11.8134 68.5045
lradius 29.9291
lwrist -23.4724
lhand -26.8702 -28.3217
lfingers 7.12502
lthumb -0.294706 1.65781
rfemur -66.8936 -2.27781 22.1877
rtibia 91.0731
rfoot -32.3959 -0.777609
rtoes -1.30161
lfemur -8.36371 8.23754 -20.1219
ltibia 26.3669
lfoot -15.2543 2.57043
ltoes 7.51906
1648
root 41.4445 18.5447 -8.53832 169.809 -80.9534 -166.017
lowerback 30.4773 0.713244 -2.3907
upperback 9.17841 -0.661025 1.81397
thorax -6.31429 -0.772104 3.68798
lowerneck -5.53226 0.459751 -3.453
upperneck 20.6425 0.277983 1.35728
head 7.21012 -0.201376 1.0198
rclavicle -5.96354e-015 2.54444e-014
rhumerus 66.423 19.7511 -68.2724
rradius 35.425
rwrist 9.62305
rhand -30.9087 -20.7352
rfingers 7.12502
rthumb -4.195 -50.6736
lclavicle -5.96354e-015 2.54444e-014
lhumerus 43.0983 -15.376 62.2066
lradius 32.6061
lwrist -16.8961
lhand -27.3417 -25.6886
lfingers 7.12502
lthumb -0.750072 4.28982
rfemur -66.9166 -2.16093 22.1051
rtibia 91.5255
rfoot -32.0489 -1.55144
rtoes -3.83185
lfemur -8.45529 7.63155 -20.0584
ltibia 27.2816
lfoot -16.5649 2.44334
ltoes 9.87838
1649
root 41.5081 18.4971 -8.52502 168.239 -80.862 -164.75
lowerback 30.0442 0.668203 -2.74084
upperback 9.26283 -0.801551 1.93385
thorax -5.99841 -0.851626 4.05978
lowerneck -5.79255 0.713281 -3.52755
upperneck 20.2445 0.695602 1.25745
head 7.11685 -0.00267134 1.03162
rclavicle 5.725e-014 -1.5704e-014
rhumerus 65.3233 20.4745 -67.5368
rradius 37.335
rwrist 7.54128
rhand -28.8697 -20.7797
rfingers 7.12502
rthumb -2.22583 -50.7478
lclavicle 5.725e-014 -1.5704e-014
lhumerus 43.2085 -15.0554 62.1437
lradius 31.9996
lwrist -16.5467
lhand -27.7847 -24.9488
lfingers 7.12502
lthumb -1.17795 5.02767
rfemur -67.1463 -2.01642 22.259
rtibia 91.9675
rfoot -31.5677 -2.01938
rtoes -5.77494
lfemur -8.62386 7.47379 -19.7135
ltibia 27.999
lfoot -17.595 1.74917
ltoes 12.2362
1650
root 41.5678 18.444 -8.50663 169.244 -80.8791 -166.062
lowerback 29.6185 0.706843 -3.36295
upperback 9.33631 -0.913224 1.9686
thorax -5.69457 -0.917717 4.48264
lowerneck -5.80551 0.854088 -3.62783
upperneck 19.5719 0.987178 1.00098
head 6.89615 0.127615 0.984905
rclavicle 3.91606e-014 -3.1408e-014
rhumerus 64.1799 21.1267 -66.485
rradius 39.4643
rwrist 5.17118
rhand -28.2237 -22.0314
rfingers 7.12502
rthumb -1.602 -52.0051
lclavicle 3.91606e-014 -3.1408e-014
lhumerus 44.1641 -9.9962 70.1643
lradius 27.5099
lwrist -25.2738
lhand -27.9181 -27.1994
lfingers 7.12502
lthumb -1.30678 2.77639
rfemur -67.6062 -1.97575 21.8294
rtibia 92.4809
rfoot -31.0715 -0.859388
rtoes -3.85238
lfemur -8.85802 8.15895 -19.9394
ltibia 28.7485
lfoot -17.8668 1.11944
ltoes 11.7111
1651
root 41.6289 18.3983 -8.49042 169.293 -80.8546 -166.557
lowerback 29.3791 0.664549 -3.54502
upperback 9.46912 -1.0351 1.78856
thorax -5.4219 -0.989748 4.41573
lowerneck -5.60448 0.868604 -3.62529
upperneck 18.6892 0.995615 1.23391
head 6.57476 0.174798 1.05487
rclavicle -3.55825e-014 -5.36719e-015
rhumerus 63.1491 21.9841 -65.0159
rradius 41.5665
rwrist -0.248807
rhand -32.8281 -23.9472
rfingers 7.12502
rthumb -6.04824 -53.8408
lclavicle -3.55825e-014 -5.36719e-015
lhumerus 44.5482 -11.6533 67.2626
lradius 27.5646
lwrist -22.4064
lhand -28.7859 -26.6211
lfingers 7.12502
lthumb -2.14493 3.34789
rfemur -67.7541 -1.79779 21.5791
rtibia 92.8616
rfoot -30.7586 0.524706
rtoes -0.235135
lfemur -8.87954 8.88111 -20.0367
ltibia 29.3033
lfoot -17.8681 1.15348
ltoes 8.77389
1652
root 41.6899 18.368 -8.4761 165.407 -80.6531 -163.095
lowerback 29.2403 0.5435 -3.09682
upperback 9.57081 -1.07807 1.71327
thorax -5.25069 -1.01695 4.07864
lowerneck -5.21255 0.977703 -2.76233
upperneck 18.0903 1.07412 1.06164
head 6.31846 0.268538 0.856291
rclavicle 4.33351e-014 5.56597e-015
rhumerus 61.4787 22.3243 -65.1495
rradius 43.4529
rwrist -2.31703
rhand -32.0727 -23.2422
rfingers 7.12502
rthumb -5.31888 -53.1555
lclavicle 4.33351e-014 5.56597e-015
lhumerus 44.5201 -13.3086 64.6955
lradius 28.3292
lwrist -20.7659
lhand -29.9701 -23.2568
lfingers 7.12502
lthumb -3.28863 6.69758
rfemur -67.5643 -1.44662 22.1216
rtibia 93.0169
rfoot -30.7044 1.72275
rtoes 3.94875
lfemur -8.81929 9.58714 -19.3059
ltibia 29.6935
lfoot -18.072 0.903031
ltoes 7.18348
1653
root 41.7429 18.3452 -8.46252 164.256 -80.4656 -162.219
lowerback 28.7386 0.359158 -2.82457
upperback 9.73794 -1.26102 1.32765
thorax -4.83049 -1.11189 3.53034
lowerneck -5.54378 1.21087 -2.38399
upperneck 17.7577 1.32034 1.4228
head 6.2645 0.451218 0.925679
rclavicle 1.59028e-015 -3.49861e-014
rhumerus 59.7012 22.3746 -66.2582
rradius 45.0343
rwrist -2.43723
rhand -28.1933 -21.0122
rfingers 7.12502
rthumb -1.57263 -50.9862
lclavicle 1.59028e-015 -3.49861e-014
lhumerus 45.32 -13.339 64.293
lradius 26.7765
lwrist -21.7628
lhand -31.0833 -21.6199
lfingers 7.12502
lthumb -4.3636 8.31511
rfemur -67.5876 -1.16397 22.2159
rtibia 93.1354
rfoot -30.6521 2.7355
rtoes 6.89106
lfemur -8.7875 10.3987 -18.9761
ltibia 29.9555
lfoot -18.2945 -0.0168271
ltoes 8.03532
